<?xml version="1.0" encoding="UTF-8" standalone="no"?>
<svg
   xmlns:dc="http://purl.org/dc/elements/1.1/"
   xmlns:cc="http://creativecommons.org/ns#"
   xmlns:rdf="http://www.w3.org/1999/02/22-rdf-syntax-ns#"
   xmlns:svg="http://www.w3.org/2000/svg"
   xmlns="http://www.w3.org/2000/svg"
   viewBox="0 0 913.82059 266.70587"
   height="266.70587"
   width="913.82056"
   xml:space="preserve"
   id="svg898"
   version="1.1"><metadata
     id="metadata904"><rdf:RDF><cc:Work
         rdf:about=""><dc:format>image/svg+xml</dc:format><dc:type
           rdf:resource="http://purl.org/dc/dcmitype/StillImage" /><dc:title></dc:title></cc:Work></rdf:RDF></metadata><defs
     id="defs902"><clipPath
       id="clipPath914"
       clipPathUnits="userSpaceOnUse"><path
         id="path912"
         d="M 0,518.458 H 1005.322 V 0 H 0 Z" /></clipPath></defs><g
     transform="matrix(1.3333333,0,0,-1.3333333,-213.26918,477.93772)"
     id="g906"><g
       id="g908"><g
         clip-path="url(#clipPath914)"
         id="g910"><g
           transform="translate(340.3983,255.9821)"
           id="g916"><path
             id="path918"
             style="fill:#05a1e6;fill-opacity:1;fill-rule:nonzero;stroke:none"
             d="m 0,0 c -2.576,-24.505 -10.937,-43.086 -25.077,-55.736 -14.144,-12.656 -37.954,-18.979 -71.426,-18.979 -33.958,0 -56.989,6.005 -69.1,18.017 -12.111,12.012 -16.81,30.91 -14.1,56.698 l 9.369,89.132 h 51.172 L -128.531,0 c -1.447,-13.775 0.779,-24.588 6.682,-32.433 5.9,-7.849 14.696,-11.771 26.391,-11.771 11.209,0 21.001,3.641 29.377,10.929 8.372,7.287 13.343,18.38 14.909,33.275 l 9.369,89.132 H 9.369 Z" /></g><g
           transform="translate(595.3099,296.8229)"
           id="g920"><path
             id="path922"
             style="fill:#05a1e6;fill-opacity:1;fill-rule:nonzero;stroke:none"
             d="m 0,0 c 0.539,5.125 -1.804,9.527 -7.021,13.215 -5.219,3.683 -10.95,5.524 -17.195,5.524 h -34.115 l -4.093,-38.919 h 34.597 c 7.362,0 13.675,1.761 18.934,5.287 C -3.64,-11.374 -0.674,-6.407 0,0 M 44.234,-111.713 H -10.54 l 1.004,46.127 c -0.484,3.041 -1.586,5.886 -3.308,8.528 -1.727,2.643 -4.329,4.927 -7.811,6.848 -5.128,0 -13.676,0.157 -25.655,0.481 -11.978,0.318 -18.371,0.479 -19.169,0.479 l -6.564,-62.463 h -51.172 l 16.817,160.005 H -0.452 C 13.962,48.292 26.99,44.604 38.627,37.24 50.268,29.87 55.369,19.378 53.94,5.768 52.965,-3.524 48.845,-11.452 41.59,-18.017 34.332,-24.587 25.353,-29.23 14.661,-31.951 l -0.203,-1.923 c 4.113,-0.48 8.176,-1.441 12.188,-2.882 4.012,-1.441 8.064,-2.989 10.904,-6.007 6.172,-6.56 5.533,-16.658 5.856,-19.699 z" /></g><g
           transform="translate(828.5023,185.11)"
           id="g924"><path
             id="path926"
             style="fill:#05a1e6;fill-opacity:1;fill-rule:nonzero;stroke:none"
             d="M 0,0 H -69.433 L -130.838,108.35 -142.225,0 h -47.809 l 16.816,160.004 h 72.795 l 58.294,-105.948 11.135,105.948 h 47.809 z" /></g><g
           transform="translate(490.3075,358.4533)"
           id="g928"><path
             id="path930"
             style="fill:#254aa5;fill-opacity:1;fill-rule:nonzero;stroke:none"
             d="m 0,0 h -139.246 l -1.403,-13.338 H -1.402 Z" /></g><g
           transform="translate(485.5453,313.1599)"
           id="g932"><path
             id="path934"
             style="fill:#254aa5;fill-opacity:1;fill-rule:nonzero;stroke:none"
             d="m 0,0 h -88.16 l -3.539,-33.633 h 80.342 l -3.414,-32.432 h -80.341 l -6.524,-61.985 h -51.074 l -2.806,-26.686 H -16.27 Z" /></g></g></g></g></svg>